<mxfile host="app.diagrams.net" modified="2021-12-07T16:26:09.386Z" agent="5.0 (X11; Linux x86_64) AppleWebKit/537.36 (KHTML, like Gecko) Chrome/96.0.4664.45 Safari/537.36" etag="PZS9xCOJPP97yaGHpm0o" version="15.9.1" type="github">
  <diagram id="42B0yYsS4WE9QI_ON9u-" name="Page-1">
    <mxGraphModel dx="3187" dy="1243" grid="1" gridSize="10" guides="1" tooltips="1" connect="1" arrows="1" fold="1" page="1" pageScale="1" pageWidth="850" pageHeight="1100" math="0" shadow="0">
      <root>
        <mxCell id="0" />
        <mxCell id="1" parent="0" />
        <mxCell id="UTaXSZdLz8AItKQFyk2M-6" style="edgeStyle=orthogonalEdgeStyle;rounded=0;orthogonalLoop=1;jettySize=auto;html=1;entryX=0.5;entryY=0;entryDx=0;entryDy=0;fontFamily=Lucida Console;fontSize=18;" edge="1" parent="1" source="UTaXSZdLz8AItKQFyk2M-3" target="UTaXSZdLz8AItKQFyk2M-5">
          <mxGeometry relative="1" as="geometry" />
        </mxCell>
        <mxCell id="UTaXSZdLz8AItKQFyk2M-12" style="edgeStyle=orthogonalEdgeStyle;rounded=0;orthogonalLoop=1;jettySize=auto;html=1;entryX=0.447;entryY=0;entryDx=0;entryDy=0;entryPerimeter=0;fontFamily=Lucida Console;fontSize=24;" edge="1" parent="1" source="UTaXSZdLz8AItKQFyk2M-3" target="UTaXSZdLz8AItKQFyk2M-11">
          <mxGeometry relative="1" as="geometry" />
        </mxCell>
        <mxCell id="UTaXSZdLz8AItKQFyk2M-14" style="edgeStyle=orthogonalEdgeStyle;rounded=0;orthogonalLoop=1;jettySize=auto;html=1;entryX=0.547;entryY=0.003;entryDx=0;entryDy=0;entryPerimeter=0;fontFamily=Lucida Console;fontSize=24;" edge="1" parent="1" source="UTaXSZdLz8AItKQFyk2M-3" target="UTaXSZdLz8AItKQFyk2M-13">
          <mxGeometry relative="1" as="geometry" />
        </mxCell>
        <mxCell id="UTaXSZdLz8AItKQFyk2M-18" style="edgeStyle=orthogonalEdgeStyle;rounded=0;orthogonalLoop=1;jettySize=auto;html=1;fontFamily=Lucida Console;fontSize=24;" edge="1" parent="1" source="UTaXSZdLz8AItKQFyk2M-3" target="UTaXSZdLz8AItKQFyk2M-17">
          <mxGeometry relative="1" as="geometry" />
        </mxCell>
        <mxCell id="UTaXSZdLz8AItKQFyk2M-21" style="edgeStyle=orthogonalEdgeStyle;rounded=0;orthogonalLoop=1;jettySize=auto;html=1;fontFamily=Lucida Console;fontSize=24;" edge="1" parent="1" source="UTaXSZdLz8AItKQFyk2M-3" target="UTaXSZdLz8AItKQFyk2M-19">
          <mxGeometry relative="1" as="geometry" />
        </mxCell>
        <mxCell id="UTaXSZdLz8AItKQFyk2M-3" value="&lt;h1&gt;MAIN()&lt;/h1&gt;&lt;h2&gt;SWITCH{&lt;/h2&gt;&lt;div style=&quot;font-size: 18px&quot;&gt;I. INSERT()&lt;/div&gt;&lt;div style=&quot;font-size: 18px&quot;&gt;II.SEARCH()&lt;/div&gt;&lt;div style=&quot;font-size: 18px&quot;&gt;III.STATS()&lt;/div&gt;&lt;div style=&quot;font-size: 18px&quot;&gt;IV.DELETE()&lt;/div&gt;&lt;div style=&quot;font-size: 18px&quot;&gt;V. DISPLAY()&lt;/div&gt;&lt;div style=&quot;font-size: 18px&quot;&gt;VI.EXIT&lt;/div&gt;&lt;div style=&quot;font-size: 18px&quot;&gt;}&lt;/div&gt;&lt;div style=&quot;font-size: 18px&quot;&gt;&lt;br&gt;&lt;/div&gt;" style="whiteSpace=wrap;html=1;aspect=fixed;" vertex="1" parent="1">
          <mxGeometry x="290" y="50" width="271" height="271" as="geometry" />
        </mxCell>
        <mxCell id="UTaXSZdLz8AItKQFyk2M-5" value="&lt;h1 style=&quot;font-size: 24px&quot;&gt;INSERT()&lt;/h1&gt;&lt;div style=&quot;font-size: 23px&quot;&gt;IF(isEmpty() == TRUE){&lt;/div&gt;&lt;div style=&quot;font-size: 23px&quot;&gt;insertAsFirst()&lt;/div&gt;&lt;div style=&quot;font-size: 23px&quot;&gt;}&lt;/div&gt;&lt;div style=&quot;font-size: 23px&quot;&gt;else{&amp;nbsp; &amp;nbsp; &amp;nbsp; &amp;nbsp; &amp;nbsp; &amp;nbsp; &amp;nbsp; &amp;nbsp; &amp;nbsp; &amp;nbsp; &amp;nbsp; &amp;nbsp; &amp;nbsp; &amp;nbsp; &amp;nbsp; &amp;nbsp; &amp;nbsp;&amp;nbsp;&lt;/div&gt;&lt;div style=&quot;font-size: 23px&quot;&gt;&lt;span&gt;INSERT id&amp;nbsp; &amp;nbsp; &amp;nbsp;&lt;/span&gt;&lt;br&gt;&lt;/div&gt;&lt;div style=&quot;font-size: 23px&quot;&gt;INSERT grade&lt;/div&gt;&lt;div style=&quot;font-size: 23px&quot;&gt;INSERT name&lt;/div&gt;&lt;div style=&quot;font-size: 23px&quot;&gt;}&lt;/div&gt;&lt;div style=&quot;font-size: 23px&quot;&gt;&lt;br&gt;&lt;/div&gt;&lt;div style=&quot;font-size: 23px&quot;&gt;&lt;br&gt;&lt;/div&gt;" style="rounded=1;whiteSpace=wrap;html=1;fontFamily=Lucida Console;fontSize=18;" vertex="1" parent="1">
          <mxGeometry x="-680" y="320" width="360" height="340" as="geometry" />
        </mxCell>
        <mxCell id="UTaXSZdLz8AItKQFyk2M-11" value="&lt;h1 style=&quot;font-size: 24px&quot;&gt;SEARCH()&lt;/h1&gt;&lt;div style=&quot;font-size: 23px&quot;&gt;IF(isEmpty() == TRUE){&lt;/div&gt;&lt;div style=&quot;font-size: 23px&quot;&gt;cout &amp;lt;&amp;lt; &quot;Empty list&quot;&lt;/div&gt;&lt;div style=&quot;font-size: 23px&quot;&gt;}&lt;/div&gt;&lt;div style=&quot;font-size: 23px&quot;&gt;else{&amp;nbsp; &amp;nbsp; &amp;nbsp; &amp;nbsp; &amp;nbsp; &amp;nbsp; &amp;nbsp; &amp;nbsp; &amp;nbsp; &amp;nbsp; &amp;nbsp; &amp;nbsp; &amp;nbsp; &amp;nbsp; &amp;nbsp; &amp;nbsp;&lt;/div&gt;&lt;div style=&quot;font-size: 23px&quot;&gt;if(currentID == studentID){&lt;/div&gt;&lt;div style=&quot;font-size: 23px&quot;&gt;&lt;span&gt;&lt;br&gt;&lt;/span&gt;&lt;/div&gt;&lt;div style=&quot;font-size: 23px&quot;&gt;&lt;span&gt;cout &amp;lt;&amp;lt; ID&lt;/span&gt;&lt;br&gt;&lt;/div&gt;&lt;div style=&quot;font-size: 23px&quot;&gt;&amp;nbsp; &amp;nbsp; &amp;nbsp; &amp;nbsp;cout &amp;lt;&amp;lt; NAME&lt;/div&gt;&lt;div style=&quot;font-size: 23px&quot;&gt;&lt;span style=&quot;white-space: pre&quot;&gt;	&lt;/span&gt;&amp;nbsp; cout &amp;lt; &amp;lt; GRADE&lt;/div&gt;&lt;div style=&quot;font-size: 23px&quot;&gt;&lt;br&gt;&lt;/div&gt;&lt;div style=&quot;font-size: 23px&quot;&gt;}&lt;/div&gt;" style="rounded=1;whiteSpace=wrap;html=1;fontFamily=Lucida Console;fontSize=18;" vertex="1" parent="1">
          <mxGeometry x="-200" y="300" width="390" height="380" as="geometry" />
        </mxCell>
        <mxCell id="UTaXSZdLz8AItKQFyk2M-13" value="&lt;h1 style=&quot;font-size: 24px&quot;&gt;STATS()&lt;/h1&gt;" style="rounded=1;whiteSpace=wrap;html=1;fontFamily=Lucida Console;fontSize=18;" vertex="1" parent="1">
          <mxGeometry x="240" y="370" width="340" height="290" as="geometry" />
        </mxCell>
        <mxCell id="UTaXSZdLz8AItKQFyk2M-17" value="&lt;h1 style=&quot;font-size: 24px&quot;&gt;DISPLAY()&lt;/h1&gt;&lt;div style=&quot;font-size: 23px&quot;&gt;IF(isEmpty() == TRUE){&lt;/div&gt;&lt;div style=&quot;font-size: 23px&quot;&gt;cout &amp;lt;&amp;lt;&quot;list is empty&quot;&lt;/div&gt;&lt;div style=&quot;font-size: 23px&quot;&gt;While(current != NULL){&lt;/div&gt;&lt;div style=&quot;font-size: 23px&quot;&gt;cout &amp;lt;&amp;lt; currentID&lt;/div&gt;&lt;div style=&quot;font-size: 23px&quot;&gt;&amp;nbsp; &amp;nbsp; &amp;nbsp; &amp;nbsp; cout &amp;lt;&amp;lt; current NAME&lt;/div&gt;&lt;div style=&quot;font-size: 23px&quot;&gt;&amp;nbsp; &amp;nbsp; &amp;nbsp; &amp;nbsp; &amp;nbsp; cout &amp;lt;&amp;lt; current GRADE&lt;/div&gt;&lt;div style=&quot;font-size: 23px&quot;&gt;}&lt;/div&gt;" style="rounded=1;whiteSpace=wrap;html=1;fontFamily=Lucida Console;fontSize=18;" vertex="1" parent="1">
          <mxGeometry x="720" y="380" width="340" height="290" as="geometry" />
        </mxCell>
        <mxCell id="UTaXSZdLz8AItKQFyk2M-19" value="&lt;h1 style=&quot;font-size: 24px&quot;&gt;DELETE()&lt;/h1&gt;&lt;div style=&quot;font-size: 23px&quot;&gt;IF(isEmpty() == TRUE){&lt;/div&gt;&lt;div style=&quot;font-size: 23px&quot;&gt;cout &amp;lt;&amp;lt; &quot;List is empty&quot;&lt;/div&gt;&lt;div style=&quot;font-size: 23px&quot;&gt;}&lt;/div&gt;&lt;div style=&quot;font-size: 23px&quot;&gt;IF(current Node is first in list){&lt;/div&gt;&lt;div style=&quot;font-size: 23px&quot;&gt;delete currentNode&lt;/div&gt;&lt;div style=&quot;font-size: 23px&quot;&gt;}&lt;/div&gt;&lt;div style=&quot;font-size: 23px&quot;&gt;else{&lt;/div&gt;&lt;div style=&quot;font-size: 23px&quot;&gt;1. Traverse linked list and find searched value&lt;/div&gt;&lt;div style=&quot;font-size: 23px&quot;&gt;}&lt;/div&gt;&lt;div style=&quot;font-size: 23px&quot;&gt;if (value is found){&lt;/div&gt;&lt;div style=&quot;font-size: 23px&quot;&gt;1. UPDATE previous node-&amp;gt;next&lt;/div&gt;&lt;div style=&quot;font-size: 23px&quot;&gt;to hop over currentNode and point&amp;nbsp;&lt;/div&gt;&lt;div style=&quot;font-size: 23px&quot;&gt;to currentNode-&amp;gt;next&lt;/div&gt;&lt;div style=&quot;font-size: 23px&quot;&gt;&lt;span&gt;2. DELETE currentNode&amp;nbsp; &amp;nbsp; &amp;nbsp; &amp;nbsp; &amp;nbsp;&lt;/span&gt;&lt;/div&gt;&lt;div style=&quot;font-size: 23px&quot;&gt;}&lt;/div&gt;&lt;div style=&quot;font-size: 23px&quot;&gt;&lt;span&gt;else{&amp;nbsp; &amp;nbsp; &amp;nbsp; &amp;nbsp; &amp;nbsp; &amp;nbsp; &amp;nbsp; &amp;nbsp; &amp;nbsp; &amp;nbsp; &amp;nbsp;&lt;/span&gt;&lt;/div&gt;&lt;div style=&quot;font-size: 23px&quot;&gt;cout &amp;lt;&amp;lt; &quot;Value does not exist&quot;&lt;/div&gt;&lt;div style=&quot;font-size: 23px&quot;&gt;&lt;br&gt;&lt;/div&gt;&lt;div style=&quot;font-size: 23px&quot;&gt;}&lt;/div&gt;" style="rounded=1;whiteSpace=wrap;html=1;fontFamily=Lucida Console;fontSize=18;" vertex="1" parent="1">
          <mxGeometry x="1250" y="250" width="460" height="600" as="geometry" />
        </mxCell>
      </root>
    </mxGraphModel>
  </diagram>
</mxfile>
